<?xml version="1.0" encoding="UTF-8" standalone="no"?>
<!-- Created with Inkscape (http://www.inkscape.org/) -->

<svg
   width="173.26564mm"
   height="94.697838mm"
   viewBox="0 0 173.26564 94.697838"
   version="1.1"
   id="svg1"
   xml:space="preserve"
   xmlns="http://www.w3.org/2000/svg"
   xmlns:svg="http://www.w3.org/2000/svg"><defs
     id="defs1" /><g
     id="layer1"
     transform="translate(-18.367182,-101.15107)"><path
       style="fill:#000000"
       d="m 142.53909,195.22194 c -0.67342,-0.42898 -6.35032,-6.61417 -12.61534,-13.74486 -12.04101,-13.70481 -12.28744,-14.0588 -10.75331,-15.44717 0.89735,-0.81208 33.14541,-12.13078 33.88919,-11.89471 1.56455,0.49656 1.67135,0.96987 3.2569,14.43375 1.34816,11.44809 1.48694,13.26226 1.16012,15.16509 -0.79365,4.62077 -3.62636,8.27665 -8.19155,10.57198 -3.44583,1.73253 -5.10948,1.95841 -6.74601,0.91592 z M 30.638522,179.91693 c -4.280615,-0.81976 -6.970977,-2.8473 -7.436826,-5.60464 -0.318126,-1.88297 0.595744,-3.59538 3.53558,-6.62497 l 2.30043,-2.37067 -5.191584,-9.144 c -2.855372,-5.0292 -5.289269,-9.62937 -5.40866,-10.22259 -0.29723,-1.47686 0.370646,-3.30134 1.581467,-4.32017 1.302811,-1.09625 4.962103,-2.22124 7.225072,-2.22124 2.790363,0 4.27571,0.61494 14.21713,5.88597 5.136193,2.72325 9.476741,4.95136 9.645661,4.95136 0.16892,0 2.188179,-1.08459 4.487243,-2.41021 2.299063,-1.32561 7.456715,-4.16282 11.461448,-6.3049 4.004733,-2.14207 7.397028,-4.0002 7.538433,-4.12915 0.141405,-0.12896 -7.707195,-5.39015 -17.441333,-11.69154 -9.734137,-6.30139 -18.120933,-11.84864 -18.637324,-12.32724 -1.295342,-1.20052 -1.798275,-3.00003 -1.278571,-4.57475 1.130526,-3.42552 9.935909,-7.65711 15.933463,-7.65711 2.692784,0 3.567999,0.21299 35.358533,8.60491 15.916766,4.20163 29.236896,7.63933 29.600276,7.63933 0.36338,0 3.27211,-0.98449 6.46383,-2.18775 11.45503,-4.31849 22.92641,-7.75405 30.68536,-9.18996 3.4732,-0.64277 14.61522,-1.06653 15.10718,-0.57458 0.19795,0.19795 -2.91004,1.77942 -8.24136,4.19355 l -8.55916,3.87576 -0.25782,2.84078 c -0.1418,1.56242 -0.19085,2.90774 -0.109,2.9896 0.0819,0.0819 6.35936,-2.70423 13.95002,-6.19129 l 13.8012,-6.3401 1.88647,0.59148 c 5.50433,1.72584 8.19038,4.47994 8.71854,8.93946 0.71552,6.04145 -5.13123,12.98951 -16.99207,20.19274 -20.77376,12.61616 -65.69706,28.11174 -113.284,39.07551 -18.2071,4.19481 -25.726939,5.25104 -30.659628,4.30641 z"
       id="path1" /></g></svg>
