<?xml version="1.0" encoding="UTF-8" standalone="no"?>
<!-- Created with Inkscape (http://www.inkscape.org/) -->

<svg
   width="135.44273mm"
   height="101.48328mm"
   viewBox="0 0 135.44273 101.48328"
   version="1.1"
   id="svg1"
   xml:space="preserve"
   xmlns="http://www.w3.org/2000/svg"
   xmlns:svg="http://www.w3.org/2000/svg"><defs
     id="defs1"><style
       id="style1">
      .cls-1 {
        stroke-width: 0px;
      }
    </style></defs><g
     id="layer1"
     transform="translate(-37.634828,-73.580473)"><path
       style="fill:#000000"
       d="m 85.411192,174.66485 c -1.56167,-0.55696 -2.54944,-1.49303 -3.36463,-3.18855 -0.49097,-1.02116 -0.50905,-1.94371 -0.51465,-26.26839 -0.006,-27.98744 -0.11779,-26.22142 1.77564,-28.16455 1.84752,-1.89602 0.31099,-1.80892 30.514558,-1.72976 l 27.10294,0.071 1.19062,0.70175 c 1.22486,0.72192 2.15901,1.78229 2.69997,3.06474 0.19007,0.45061 0.36588,3.1954 0.45792,7.14925 l 0.1494,6.41782 6.25387,-5.00808 c 3.43962,-2.75445 6.77337,-5.28294 7.40833,-5.61887 1.02423,-0.54189 1.59802,-0.62165 5.08613,-0.70699 3.18291,-0.0779 4.14889,-0.0132 5.07235,0.33944 1.41331,0.53975 3.16526,2.39627 3.54214,3.75355 0.37104,1.33627 0.39685,37.9436 0.0277,39.2309 -0.41627,1.45146 -1.52137,2.80828 -2.89717,3.55708 -1.21678,0.66226 -1.47474,0.69753 -5.10125,0.69753 -2.71385,0 -4.1594,-0.11576 -4.99317,-0.39985 -0.78155,-0.2663 -3.38221,-2.1661 -7.7862,-5.68786 l -6.61269,-5.288 -0.13229,6.41546 c -0.12494,6.05923 -0.16685,6.48564 -0.75469,7.67943 -0.68511,1.39132 -1.88779,2.44482 -3.41196,2.98874 -1.47921,0.52788 -54.231838,0.52236 -55.712828,-0.006 z M 132.60092,134.5617 c 3.19174,-1.6283 3.46567,-6.41048 0.48036,-8.38607 -1.21281,-0.80259 -3.17822,-1.07101 -4.54335,-0.62047 -1.23549,0.40775 -2.71999,2.08193 -3.10937,3.50667 -1.10031,4.02604 3.35884,7.44539 7.17236,5.49987 z m -89.616025,10.0988 c -2.655503,-0.91767 -4.542199,-3.01653 -5.119867,-5.69561 -0.204373,-0.94783 -0.267458,-8.31501 -0.209846,-24.50629 l 0.08238,-23.151042 0.640096,-1.300526 c 0.790512,-1.606134 2.277118,-3.079189 3.927611,-3.89181 1.173813,-0.577927 1.617551,-0.622946 7.010972,-0.711288 l 5.757847,-0.09431 2.146495,-4.243916 c 2.328254,-4.603279 3.398694,-5.954182 5.480636,-6.916599 1.207686,-0.558276 1.475868,-0.568633 14.723841,-0.568633 h 13.493752 l 1.50325,0.73821 c 0.8268,0.406015 1.87179,1.157939 2.32221,1.670941 0.45042,0.513002 1.76389,2.81983 2.91881,5.126283 l 2.09986,4.193552 5.764388,0.09047 c 5.23866,0.08222 5.87773,0.142666 7.00697,0.662788 1.78787,0.823475 3.47357,2.620016 4.14685,4.419516 0.52756,1.410031 0.5637,1.997964 0.5637,9.169626 v 7.662988 H 106.8586 96.472362 l -0.62492,-1.61161 c -3.10066,-7.996381 -12.07973,-13.276984 -20.696905,-12.171876 -7.531719,0.965905 -13.667628,5.765378 -16.294285,12.745296 -2.525254,6.71046 -1.281825,14.21108 3.278451,19.7763 2.241275,2.73518 6.696236,5.61172 9.932541,6.41339 l 1.256771,0.31132 v 6.1863 6.18629 l -14.485937,-0.009 c -13.206105,-0.008 -14.606732,-0.0504 -15.853183,-0.48113 z m 28.75162,-20.9626 c -5.452293,-2.98047 -7.686373,-9.85723 -5.039746,-15.51295 1.048651,-2.24091 3.404351,-4.59661 5.645266,-5.64526 4.669266,-2.18502 10.298527,-1.09306 13.786397,2.67425 0.8157,0.88105 1.48308,1.71418 1.48308,1.85141 0,0.13722 -0.38695,0.25126 -0.85989,0.25341 -2.65311,0.0121 -6.396647,1.57867 -8.681713,3.63314 -2.899072,2.60652 -4.329722,5.88292 -4.675189,10.7069 l -0.202997,2.83458 z"
       id="path8" /></g></svg>
