<?xml version="1.0" encoding="UTF-8"?>
<svg id="Capa_2" data-name="Capa 2" xmlns="http://www.w3.org/2000/svg" viewBox="0 0 349.27 327.46">
  <defs>
    <style>
      .cls-1 {
        stroke-width: 0px;
      }
    </style>
  </defs>
  <g id="Capa_1-2" data-name="Capa 1">
    <path class="cls-1" d="m342.22,91.25s-2.15-4.3-3.97-9.24c-49.12-10.35-139.21-5.13-139.21-5.13,0,0,14.47,14.65,27.11,30.2l-29.11,47.28-.23-.21s-7.15,14.04-13.12,26.08c-.27.55-.54,1.09-.8,1.63-.53,1.08-1.05,2.13-1.55,3.15-.25.51-.49,1.01-.73,1.5-1.43,2.94-2.66,5.52-3.53,7.4-.09.2-.22.46-.38.78-.32.64-.76,1.5-1.26,2.46-.12.24-.25.49-.39.74-.13.25-.27.51-.4.77-.27.52-.55,1.05-.83,1.58-.84,1.58-1.67,3.14-2.29,4.3-.23.08-.46.15-.69.22-.07.02-.15.03-.22.05-.16.04-.32.08-.48.12-.09.02-.18.03-.27.04-.14.02-.29.05-.43.07-.1.01-.2.01-.3.02-.14,0-.27.02-.41.02-.02,0-.04,0-.05,0-.11,0-.23-.01-.34-.02-.02,0-.03,0-.05,0-.07,0-.14,0-.22,0-.01,0-.02,0-.04,0-.14-.01-.28-.04-.42-.06-.1-.02-.19-.03-.29-.05-.15-.03-.31-.08-.46-.13-.08-.02-.16-.04-.24-.07-.24-.08-.47-.18-.71-.29-.7-.34-.8-1.21-.78-1.85,0-.09,0-.18.01-.26,0-.02,0-.05.02-.1.03-.09.09-.2.21-.3.06-.05.13-.09.22-.12.18.02.44.04.8.06.36.02.84.04,1.45.05.09,0,.19,0,.29,0,.08,0,.15,0,.23,0,.09,0,.18-.02.28-.03.08,0,.16-.02.24-.03.09-.01.19-.03.29-.05.08-.01.16-.03.25-.04.09-.02.18-.05.29-.07.08-.02.16-.04.24-.06.1-.03.19-.06.29-.1.07-.03.15-.05.22-.08.1-.04.19-.08.28-.13.06-.03.13-.06.2-.09.1-.05.19-.11.29-.17.05-.03.1-.05.14-.09.13-.09.26-.2.36-.3.44-.44.79-.84,1.07-1.29.19-.3.35-.63.49-1,.21-.56.37-1.23.51-2.1,0-.02.01-.21.03-.45.03-.4.08-.93.16-1.02,0,0-.03,0-.08,0-.01,0-.02,0-.04,0-.05,0-.12.01-.21.02-.03,0-.05,0-.07,0-.22.02-.54.05-.93.07-.05,0-.11,0-.16,0-.15,0-.32.01-.49.02-.06,0-.12,0-.19,0-.23,0-.48.01-.75.01-.33,0-.68,0-1.05-.02-.11,0-.23-.01-.34-.02-.27-.01-.55-.03-.83-.05-.14-.01-.28-.02-.43-.04-.28-.03-.57-.06-.87-.1-.14-.02-.28-.03-.42-.06-.41-.06-.82-.13-1.23-.22-.03,0-.05,0-.08-.02-.44-.09-.88-.21-1.32-.33-.13-.04-.27-.08-.4-.13-.31-.1-.62-.2-.93-.32-.15-.06-.31-.12-.46-.18-.3-.12-.6-.26-.9-.41-.14-.07-.27-.13-.4-.2-.42-.22-.83-.46-1.22-.74-.04-.1-.07-.21-.11-.35-.01-.05-.02-.11-.03-.16-.02-.09-.04-.19-.06-.29-.01-.07-.02-.15-.03-.23-.01-.1-.03-.2-.04-.31,0-.09-.02-.19-.02-.28,0-.11-.02-.22-.03-.33,0-.1-.01-.22-.02-.33,0-.11-.01-.22-.02-.34,0-.11,0-.23,0-.35,0-.12,0-.23,0-.35,0-.12,0-.24,0-.36,0-.12,0-.24,0-.35,0-.02,0-.04,0-.06,0-.1,0-.2,0-.3,0-.12,0-.23,0-.35,0-.12,0-.23.01-.34,0-.12,0-.24.02-.35,0-.11.01-.21.02-.32,0-.11.01-.23.02-.34,0-.1.02-.2.03-.29,0-.1.02-.21.03-.31,0-.02,0-.05,0-.08,0-.07.02-.12.03-.19.01-.09.02-.18.04-.26.01-.08.03-.15.04-.22.01-.08.03-.15.04-.22,0-.02,0-.04.01-.06.01-.04.02-.06.03-.1.02-.06.03-.11.05-.16.02-.04.03-.07.05-.1.02-.04.04-.07.06-.09.02-.02.04-.03.06-.04.01,0,.03-.03.04-.03s.03,0,.04.01c5.79,2.7,10.02,3.89,12.37,4.41,1.41.31,2.15.37,2.15.37,0-.18-.01-.39-.02-.6-.04-.64-.11-1.37-.15-1.84-.02-.3-.08-.59-.14-.88-.02-.07-.03-.14-.05-.21-.07-.28-.16-.56-.27-.83,0-.02-.02-.04-.03-.07-.11-.25-.24-.5-.37-.75-.03-.06-.07-.12-.11-.18-.16-.26-.32-.51-.51-.75-.02-.03-.05-.06-.08-.1-.17-.22-.36-.43-.55-.64-.05-.05-.09-.1-.14-.15-.22-.23-.45-.45-.7-.66-.04-.04-.09-.07-.13-.1-.22-.19-.45-.37-.69-.54-.05-.04-.11-.08-.16-.12-.27-.19-.56-.38-.85-.56-.06-.03-.11-.07-.17-.1-.26-.15-.53-.3-.8-.44-.06-.03-.11-.06-.16-.09-.31-.16-.63-.3-.95-.44-.07-.03-.13-.06-.2-.08-.29-.12-.59-.24-.88-.34-.05-.02-.1-.04-.15-.05-.33-.12-.67-.22-1.01-.32-.07-.02-.15-.04-.22-.06-.31-.09-.62-.16-.94-.23-.04,0-.07-.02-.11-.03-.34-.07-.68-.13-1.02-.18-.08-.01-.16-.02-.24-.03-.32-.04-.65-.08-.96-.11-.02,0-.04,0-.06,0-.33-.03-.66-.04-.98-.04-.07,0-.14,0-.21,0-.39,0-.77.02-1.14.06-.06,0-.11.01-.17.02-.37.04-.73.1-1.08.18-.04.01-.09.02-.13.03-.35.09-.69.19-1.01.31-.03.01-.05.02-.07.03-.33.14-.65.29-.94.47-1.51,1.21-2.64,2.69-3.45,4.31-.2.4-.38.81-.54,1.23-.32.83-.56,1.68-.73,2.54-.17.85-.26,1.71-.29,2.54-.01.42-.01.83,0,1.23.04.81.14,1.59.29,2.32.08.36.17.72.28,1.05.32,1.01.75,1.89,1.29,2.56.25.31.69.73,1.17,1.14.36.31.75.61,1.09.87.11.08.22.16.32.24.15.11.29.2.4.27,0,.08.17.18.33.29.08.05.16.11.22.17.03.03.05.06.06.09.01.03.02.06,0,.09-.04.16-.1.34-.17.55-.06.18-.13.37-.21.56,0,.01,0,.02-.01.03-.07.19-.16.38-.24.56,0,.01-.01.03-.02.04-.08.18-.17.36-.25.53,0,.02-.02.03-.02.05,0,.01-.01.02-.02.03-.05.09-.1.18-.14.27-.03.06-.06.11-.09.16,0,.02-.02.03-.03.05-.08.14-.16.26-.24.37,0,.01-.02.03-.03.04-.05.07-.1.13-.15.18-.02.02-.04.04-.07.06,0,0-.02.02-.03.02,0,0-.02.02-.03.02-.06.04-.11.06-.17.07-.01,0-.02,0-.03,0-.02,0-.07,0-.13,0-.04,0-.09,0-.14,0-.09,0-.2,0-.33,0-.12,0-.26,0-.4,0-.04,0-.09,0-.13,0-.11,0-.22-.01-.33-.02-.06,0-.11,0-.17-.01-.11-.01-.23-.02-.34-.04-.05,0-.11-.01-.16-.02-.17-.03-.33-.06-.49-.1-.22-1.18-.47-3.03-.72-5.25-.04-.37-.08-.75-.13-1.14-.63-5.83-1.28-13.69-1.7-19.04-.03-.36-.05-.7-.08-1.04-.23-3-.38-4.99-.38-4.99l-.32-9.67c.44-1.09.8-2.15.91-3.14.03-.25.04-.49.04-.72s-.02-.47-.06-.69c-.04-.22-.1-.44-.18-.65-.08-.21-.19-.42-.32-.61-.08-.12-.17-.23-.27-.32-.1-.1-.21-.18-.33-.26l-.65-19.69-.86.09-3.55-44.91c18.92-8.19,37-14.86,57.13-16.5,78.58-6.41,136.79,5.32,136.79,5.32C247.12-65.01,60.74,20.8,5.37,77.52c-16.65,17.06,9.89,25.28,19.42,29.86,12.35,5.94,43.92,15.59,62.53,6.89,12.16-4.27,23.33-9.02,33.95-13.72l13.64,42.96-.67.02c.36.97.7,1.94,1.04,2.9.34.96.66,1.92.98,2.88.95,2.86,1.82,5.68,2.61,8.43.79,2.75,1.5,5.43,2.14,8.02-.34,1.38-.79,2.93-1.3,4.57s-1.06,3.36-1.62,5.08c-.19.57-.37,1.15-.56,1.72-.18.57-.37,1.14-.54,1.7-.18.56-.35,1.11-.52,1.66-.5,1.63-.95,3.17-1.28,4.54-.45,1.82-.69,3.33-.61,4.32-.08,1.11.1,2.42.47,3.85.44,1.69,1.13,3.54,1.94,5.38.1.23.2.46.3.7.47,1.03.97,2.06,1.47,3.05.25.49.51.98.76,1.45.32.6.63,1.17.94,1.72.42.75.82,1.46,1.19,2.08.64,1.08,1.17,1.95,1.51,2.51-.22-.1-.43-.17-.63-.24-.06-.02-.12-.04-.18-.05-.15-.04-.29-.08-.43-.11-.06-.01-.12-.02-.17-.03-.17-.03-.35-.04-.51-.05-.01,0-.02,0-.03,0-.02,0-.03,0-.05,0-.2,0-.4.03-.58.07-.06.01-.13.04-.19.06-.14.04-.27.09-.4.15-.07.03-.13.07-.19.1-.12.07-.25.16-.36.25-.05.04-.11.08-.16.13-.16.15-.32.31-.47.5-.16.2-.32.41-.49.65-.34.47-.7,1.02-1.06,1.62-.18.3-.37.62-.56.94-2.24,3.93-4.63,9.58-4.92,13.18-.09,1.09-.19,2.75-.19,4.6,0,.31,0,.62,0,.94,0,.32.01.64.03.96.08,1.94.28,3.96.74,5.67.15.57.33,1.11.54,1.6.26.61.57,1.15.89,1.63.48.72,1.01,1.29,1.47,1.75.31.31.59.56.82.78.11.11.21.2.33.25,0-.02.02-.04.03-.07,0-.02.01-.04.02-.06.01-.03.02-.07.03-.11,0-.03.02-.06.03-.1.01-.05.03-.1.04-.15.01-.04.02-.08.03-.13.01-.05.03-.11.04-.17.01-.06.03-.11.04-.17,0-.04.02-.08.03-.12.02-.08.04-.16.06-.25.01-.06.03-.12.04-.18.02-.07.03-.14.05-.21.03-.11.05-.21.08-.32,0-.03.01-.06.02-.09.01-.05.02-.09.03-.14.05-.2.09-.4.14-.59,0-.03.01-.06.02-.09.02-.07.03-.14.05-.21.07-.31.13-.58.18-.79,0-.01,0-.02,0-.04.02-.06.03-.13.04-.18,0-.02,0-.03.01-.04,0-.03.02-.07.04-.13,0,.02-.02.36-.06.85-.08.99-.23,2.61-.32,3.6-.01.12-.02.24-.03.34-.03.3-.04.5-.04.51.07.39.1.77.1,1.15,0,.19-.01.38-.03.57-.13,1.34-.6,2.7-.88,4.34-.16.94-.26,1.96-.2,3.12.03.58.1,1.19.22,1.84.6,3.22,3.48,7.18,6.82,10.95.74.84,1.51,1.67,2.28,2.48.77.81,1.55,1.6,2.3,2.37,1.14,1.14,2.24,2.22,3.24,3.2-4.97.14-9.93,10.82-14.07,16.71-.33.47-.66.91-.98,1.31-.48.6-.95,1.12-1.4,1.52-.3.27-.6.49-.89.65-.47.26-.93.47-1.38.65-.22.09-.44.16-.66.23-.43.14-.85.25-1.26.34-.6.13-1.17.22-1.68.3-.07.01-.13.01-.2.01-.03,0-.06,0-.08,0-.04,0-.08,0-.12-.01-.06,0-.13-.02-.19-.03-.06-.01-.13-.03-.19-.04-.05-.01-.1-.02-.15-.03-.09-.02-.19-.03-.29-.03-.32,0-.62.18-.87.41-.13.11-.24.24-.35.35-.1.12-.2.23-.27.32-.42.48-.72,1.06-.92,1.76-.06.23-.12.48-.16.74-.08.52-.11,1.09-.08,1.71.02.62.1,1.3.23,2.03.18,1.05.88,2.02,1.2,3.13.05.16.08.32.11.49.02.11.05.28.11.51.03.11.06.24.09.38.07.27.15.59.23.94.09.34.18.71.28,1.09.1.38.2.76.3,1.14.1.38.19.75.28,1.09.04.17.09.34.13.49.08.31.15.59.21.81.06.23.1.4.12.5.35,1.53-.03,2.9,1.06,4.24.75.92,1.82,1.52,2.95,1.89.51.17,1.1.28,1.58.01.41-.23.63-.68.79-1.11.51-1.33.74-2.82.3-4.17-.26-.79-.32-1.42-.28-2.25.02-.34.03-.68.06-1.03,0-.15.02-.29.04-.44.02-.3.05-.6.08-.9.02-.19.05-.38.07-.57.03-.26.06-.52.1-.78.03-.22.07-.44.11-.65.04-.22.07-.45.12-.67.05-.25.11-.49.17-.73.04-.18.08-.37.13-.56.08-.27.17-.53.26-.79.05-.14.09-.29.14-.43.15-.39.31-.76.49-1.11.66-.79,1.52-1.74,2.53-2.79.51-.53,1.05-1.08,1.62-1.66.57-.58,1.18-1.18,1.8-1.8.94-.93,1.93-1.91,2.95-2.92.68-.67,1.37-1.36,2.07-2.06.7-.7,1.4-1.4,2.1-2.11.35-.36.7-.71,1.05-1.07.7-.72,1.39-1.44,2.07-2.15.68-.72,1.35-1.44,2-2.15,2.93-3.21,5.47-6.32,6.98-8.95.34-.59.62-1.15.85-1.68.11-.27.21-.53.3-.78,0-.16-.01-.32-.02-.49-.12-1.71-.68-4.09-1.06-5.86-.08-.35-.15-.68-.2-.98s-.1-.55-.13-.77c-.01-.11-.02-.2-.03-.29.07.05.14.12.22.21.16.19.34.46.55.8.31.51.66,1.16,1.04,1.9.26.49.53,1.02.81,1.57,1.12,2.19,2.38,4.67,3.51,6.18.26.38.39.84.4,1.37.02.53-.08,1.12-.25,1.77-.09.33-.19.67-.31,1.02-1.33,3.88-4.6,9.3-4.92,14.45-.09,1.53-.12,3.71-.15,6.11-.03,3.01-.06,6.35-.2,9.17-.06.07-.11.15-.11.24-.07,2-.71,4-1.87,5.63-.02.03-.04.06-.06.09-.25.44-.19.99-.05,1.48.58,2.08,2.28,3.32,4.13,4.24,2.16,1.06,4.61,1.33,6.94,1.95,3.23.86,6.47,2.42,9.77,1.82,1.12-.2,2.32-.79,2.62-1.89.26-.95-.25-1.83-.91-2.47-.37-.36-.79-.67-1.23-.93-.58-.35-.9-.47-1.57-.59-.16-.03-.31-.09-.46-.15-1.73-.71-3.24-1.85-4.63-3.09-1.21-1.08-2.67-2.05-3.31-3.58-.52-1.26-.89-2.59-1.09-3.94-.01-.09-.04-.18-.08-.25.35-1.25.73-2.57,1.13-4,.45-1.62.94-3.34,1.44-5.15.76-2.71,1.57-5.62,2.43-8.64.28-1.01.57-2.03.86-3.06.07-.26.2-.65.37-1.14.34-.98.84-2.36,1.38-3.86.82-2.25,1.73-4.77,2.35-6.62.21-.62.38-1.16.51-1.59.13-.43.21-.76.22-.94.15-1.6-1.01-3.71-1.68-5.4-.1-.24-.18-.47-.25-.69-.44-1.4-.94-2.76-1.48-4.07-1.08-2.63-2.32-5.09-3.61-7.41-1.29-2.32-2.64-4.5-3.94-6.57-1.94-3.1-3.76-5.95-5.09-8.63.1-1,.22-2,.36-3.01.27-2.02.61-4.05,1-6.06.58-3.02,1.28-5.99,2.04-8.78.51-1.86,1.04-3.65,1.58-5.32.14-.22.81-.69,1.86-1.35.42-.26.91-.56,1.44-.88,1.34-.8,2.99-1.77,4.81-2.85,1.09-.65,2.24-1.33,3.41-2.05.39-.24.79-.48,1.18-.72,1.58-.98,3.19-2,4.74-3.03.77-.52,1.54-1.04,2.27-1.56.37-.26.73-.52,1.09-.78.71-.52,1.39-1.04,2.03-1.55,1.28-1.02,2.41-2.02,3.3-2.98.67-.71,1.2-1.4,1.57-2.04.05-.09.11-.21.16-.34.15-.39.29-.95.42-1.61.04-.22.08-.45.12-.69.08-.48.15-.99.22-1.53.3-2.4.47-5.19.47-6.78,0-.18,0-.38,0-.58,0-.2-.01-.42-.02-.64-.02-.45-.04-.93-.07-1.44-.01-.26-.03-.52-.05-.79-.05-.81-.1-1.68-.15-2.59-.02-.3-.03-.61-.05-.92-.06-1.24-.11-2.54-.12-3.85,0-.65,0-1.3.01-1.95,0-.32.02-.64.03-.96.04-.95,1.36-2.31,1.65-3.12.04-.12.06-.22.06-.31-.03-.43-.11-1.18-.22-2.03-.02-.17-.04-.34-.07-.52-.22-1.76-.52-3.76-.69-4.26-.04-.11-.09-.21-.16-.3-.07-.09-.15-.18-.24-.26.34-.48.67-.94.98-1.38s.62-.87.91-1.28c.72-1.01,1.35-1.89,1.83-2.56.19-.27.37-.51.51-.71.07-.1.14-.19.2-.28.24-.33.37-.52.37-.52l-.49-.04,29.73-42.32c3.69,4.95,6.91,9.76,9.12,13.95,7.32,13.94,85.78,10.08,99.04,4.56,15-6.25,7.06-27.58,1.6-42.42Zm-200.95,65.69l-4.72-13.49-.6.02-13.76-43.33c7.06-3.13,13.88-6.23,20.59-9.15l3.52,44.6-.7.08s.65,18.7.65,18.7c-.11,0-.23.01-.35.02-.1,0-.19,0-.3.02-.12.02-.24.04-.37.07-.1.02-.21.03-.31.06-.13.03-.26.08-.39.12-.1.03-.21.06-.31.09-.13.05-.27.11-.4.17-.1.04-.2.08-.3.13-.14.06-.26.14-.4.22-.09.05-.19.1-.28.15-.13.08-.25.18-.37.27-.08.06-.17.11-.24.17-.13.11-.24.23-.35.34-.06.06-.12.11-.18.17-.16.18-.3.38-.42.58Zm1.69,33c-.1-.16-.19-.31-.28-.47-.18-.31-.33-.6-.46-.88-.06-.14-.12-.27-.17-.4-.1-.26-.17-.5-.2-.71-.02-.11-.02-.21-.02-.3,0-.22.07-.6.18-1.12.05-.26.12-.55.2-.87.08-.32.16-.66.25-1.03.09-.37.19-.76.3-1.18.11-.41.22-.84.34-1.29.12-.45.24-.91.37-1.38.13-.47.26-.95.39-1.44.78,4.2,1.35,7.88,1.75,10.86.08.59.15,1.16.22,1.7.14,1.07.25,2.03.34,2.85-1.06-1.32-2.32-2.94-3.2-4.36Zm3.06-19.42c.05-.23.11-.46.16-.68.15-.65.26-1.23.34-1.69.05-.28.11-.56.18-.85l.2,5.73-.88-2.51Zm43.98,1.7c.09.07.18.14.29.2l-1.11,1.52.82-1.72Zm2.49,2.91c-.13,1.15-.35,2.71-.62,4.48-.04.25-.08.51-.12.77-.24,1.57-.5,3.26-.76,4.96-.26,1.7-.52,3.39-.76,4.96-.31,2.09-.57,3.95-.72,5.27-.17.26-.37.52-.61.78-.35.38-.79.75-1.3,1.12-.34.24-.73.48-1.15.72-.63.36-1.35.71-2.16,1.06-.54.24-1.12.47-1.75.71-1.25.47-2.67.95-4.28,1.44-.21.07-.43.14-.65.23,1.74-4.24,4.96-11.81,7.68-17.28.9-1.82,1.75-3.41,2.47-4.57.39-.62.85-1.34,1.38-2.14.88-1.33,1.92-2.86,3.03-4.48.21.1.36.2.42.32.02.04.03.08.03.12-.01.35-.06.87-.14,1.53Zm9.1-17.76l-.26-.02-4.55,6.22c-.34-.06-.68-.08-1.02-.09-.13,0-.27,0-.39,0-.04,0-.08,0-.11,0-.21.01-.4.04-.59.07-.04,0-.08.02-.11.02-.18.04-.36.08-.51.14l4.02-8.46-.25-.23,29.02-47.13c1.72,2.14,3.41,4.28,5.01,6.41l-30.25,43.06Z"/>
  </g>
</svg>