<?xml version="1.0" encoding="UTF-8" standalone="no"?>
<!-- Created with Inkscape (http://www.inkscape.org/) -->

<svg
   width="121.42828mm"
   height="121.46137mm"
   viewBox="0 0 121.42828 121.46137"
   version="1.1"
   id="svg1"
   xml:space="preserve"
   xmlns="http://www.w3.org/2000/svg"
   xmlns:svg="http://www.w3.org/2000/svg"><defs
     id="defs1" /><g
     id="layer1"
     transform="translate(-55.605157,-49.579337)"><path
       style="fill:#000000;stroke-width:7.64934"
       d="m 78.489068,170.41974 -0.621122,-0.62112 V 151.4679 c 0,-19.50827 0.03828,-20.24682 1.250895,-23.47185 1.218167,-3.24248 3.886627,-6.49284 7.045197,-8.58134 7.445409,-4.92327 17.091982,-3.69815 23.310212,2.96037 0.957,1.02463 1.81213,1.86308 1.9004,1.86308 0.088,0 3.5428,-1.39027 7.67681,-3.0895 7.11327,-2.9238 7.61123,-3.08995 9.28712,-3.09905 1.34606,-0.007 2.04407,0.12697 2.90936,0.5607 1.04361,0.52245 1.164,0.53545 1.44481,0.15528 0.16824,-0.22872 4.36447,-7.94185 9.3244,-17.14087 4.9599,-9.199016 9.24613,-16.924772 9.52486,-17.168252 1.12699,-0.984469 3.23362,-0.0459 3.23362,1.440601 0,0.363342 -4.25166,8.504765 -9.81587,18.795721 l -9.81578,18.15433 0.10163,1.78995 c 0.1269,2.23253 -0.49413,3.84379 -2.08474,5.40464 -0.96917,0.95112 -2.09493,1.48359 -9.915,4.68927 l -8.82175,3.61631 -0.12613,15.86327 -0.12632,15.86327 -0.59741,0.48345 c -0.57446,0.46508 -1.23629,0.48343 -17.530758,0.48343 H 79.109941 Z M 56.226282,133.98976 c -0.391637,-0.39164 -0.621123,-0.91004 -0.621123,-1.40296 0,-0.49262 0.229486,-1.01147 0.621123,-1.40289 0.572182,-0.57217 0.80915,-0.62113 3.035789,-0.62113 h 2.414897 V 92.707505 c 0,-28.982282 0.0689,-38.099377 0.307518,-38.89659 0.410757,-1.389655 2.506308,-3.485422 3.895947,-3.895961 1.513282,-0.447487 99.369427,-0.447487 100.882707,0 1.38956,0.410769 3.48534,2.506306 3.89595,3.895961 0.23561,0.797213 0.30752,9.914308 0.30752,38.89659 v 37.855275 h 2.41489 c 2.22656,0 2.46323,0.0459 3.03579,0.62113 0.82154,0.82154 0.82154,1.98431 0,2.80585 l -0.62112,0.62113 h -20.79948 -20.79948 l 1.55505,-1.40725 c 2.26061,-2.04574 3.35622,-4.35071 3.56787,-7.50622 l 0.15752,-2.34445 9.37435,-17.3295 c 5.15595,-9.531225 9.50873,-17.716554 9.67289,-18.189512 1.28004,-3.688053 -1.81931,-7.868034 -5.834,-7.868034 -1.37335,0 -3.00702,0.68844 -4.0504,1.706798 -0.67315,0.657078 -3.41765,5.496125 -9.44578,16.655287 l -8.49689,15.729181 -1.576,-0.12621 c -2.31652,-0.18588 -3.59932,0.1813 -10.43944,2.98868 l -6.19648,2.54325 -1.18115,-1.10112 c -1.41511,-1.31928 -3.18724,-2.56116 -5.17592,-3.62724 l -1.46486,-0.78528 1.04875,-0.72669 c 2.78458,-1.9297 5.43943,-6.05338 6.18195,-9.60214 C 114.3,92.1244 104.16364,81.988033 92.667524,84.393368 85.384745,85.917192 79.900546,92.70927 79.900546,100.20516 c 0,4.92511 2.740463,10.37572 6.540808,13.00931 l 1.037009,0.71904 -1.926413,1.09783 c -4.897338,2.79079 -8.340535,6.66617 -10.194657,11.47409 -0.764153,1.98255 -1.537207,5.62861 -1.537207,7.25379 v 0.85236 H 65.333535 56.846964 Z M 93.24273,111.95454 c -6.052305,-1.46714 -10.060871,-7.43416 -9.112038,-13.564036 1.004816,-6.491841 7.158791,-11.08412 13.608245,-10.154956 5.330913,0.767993 9.542703,4.96465 10.306953,10.269926 1.20997,8.398596 -6.5509,15.449526 -14.80316,13.449066 z"
       id="path1" /></g></svg>
