<?xml version="1.0" encoding="utf-8"?>
<!-- Generator: Adobe Illustrator 27.9.0, SVG Export Plug-In . SVG Version: 6.00 Build 0)  -->
<svg version="1.1" id="Capa_1" xmlns="http://www.w3.org/2000/svg" xmlns:xlink="http://www.w3.org/1999/xlink" x="0px" y="0px"
	 viewBox="0 0 800 800" style="enable-background:new 0 0 800 800;" xml:space="preserve">
<style type="text/css">
	.st0{fill-rule:evenodd;clip-rule:evenodd;fill:#FFFFFF;}
</style>
<path class="st0" d="M66.7,200c0-73.6,59.7-133.3,133.3-133.3h400c73.6,0,133.3,59.7,133.3,133.3v400c0,73.6-59.7,133.3-133.3,133.3
	H200c-73.6,0-133.3-59.7-133.3-133.3V200z M200,133.3c-36.8,0-66.7,29.8-66.7,66.7v400c0,36.8,29.8,66.7,66.7,66.7h400
	c36.8,0,66.7-29.8,66.7-66.7V200c0-36.8-29.8-66.7-66.7-66.7H200z M400,300c-55.2,0-100,44.8-100,100s44.8,100,100,100
	s100-44.8,100-100S455.2,300,400,300z M233.3,400c0-92,74.6-166.7,166.7-166.7c92,0,166.7,74.6,166.7,166.7
	c0,92-74.6,166.7-166.7,166.7C308,566.7,233.3,492,233.3,400z M583.3,266.7c27.6,0,50-22.4,50-50s-22.4-50-50-50s-50,22.4-50,50
	S555.7,266.7,583.3,266.7z"/>
</svg>
