<?xml version="1.0" encoding="UTF-8" standalone="no"?>
<!-- Created with Inkscape (http://www.inkscape.org/) -->

<svg
   width="171.51196mm"
   height="155.28618mm"
   viewBox="0 0 171.51196 155.28618"
   version="1.1"
   id="svg1"
   xml:space="preserve"
   xmlns="http://www.w3.org/2000/svg"
   xmlns:svg="http://www.w3.org/2000/svg"><defs
     id="defs1"><style
       id="style1">
      .cls-1 {
        stroke-width: 0px;
      }
    </style></defs><g
     id="layer1"
     transform="translate(-25.093167,-45.028533)"><path
       style="fill:#000000"
       d="m 111.84013,200.11802 c -0.71019,0.23791 -1.56759,0.26153 -2.27055,0.0625 l -1.12947,-0.31973 -37.178667,-37.365 c -34.4406,-34.61323 -37.14725,-37.37892 -36.751972,-37.55378 0.775516,-0.34307 3.239637,-2.2746 4.529472,-3.55049 l 1.269076,-1.25541 28.750224,28.79936 28.750215,28.79935 -16.816316,-37.03461 c -14.488639,-31.90839 -16.759978,-37.07277 -16.40954,-37.31073 1.126371,-0.76479 6.738763,-3.11758 6.848967,-2.87117 5.487971,12.27004 39.142581,86.08427 39.249091,86.08453 0.10717,1e-4 36.47598,-78.7335 39.60522,-85.74013 0.18773,-0.42036 0.39904,-0.34372 5.01163,1.81792 l 2.36563,1.10863 -0.26539,0.5754 c -0.14597,0.31646 -7.80816,16.96383 -17.02708,36.99415 l -16.7617,36.41877 28.88294,-28.64438 28.88293,-28.64438 1.17146,1.16599 c 1.27462,1.26825 3.86723,3.33908 4.58188,3.6595 0.42238,0.18938 -1.58908,2.226 -36.85013,37.31094 -37.02862,36.84366 -37.3051,37.11341 -38.43802,37.49289 z m 82.42994,-81.6817 c -0.3573,0.15244 -0.95007,0.2914 -1.31725,0.3088 -1.44946,0.0687 -2.11038,-0.375 -6.36353,-4.27159 -8.41394,-7.70859 -15.87883,-12.91463 -25.53656,-17.809312 -6.48532,-3.28686 -14.03964,-6.223029 -20.60109,-8.007111 -1.86666,-0.507548 -2.29869,-0.713061 -2.21431,-1.053315 0.0577,-0.232502 1.77392,-8.198242 3.81388,-17.701624 3.63446,-16.931494 3.72221,-17.274898 4.36464,-17.080749 2.31972,0.701062 10.53977,5.832838 15.69721,9.799785 3.85179,2.96267 11.92208,11.076527 15.1846,15.266385 7.65399,9.830057 13.63757,20.496049 17.8616,31.839141 0.69274,1.86029 1.3269,3.89249 1.40925,4.51601 0.23778,1.80065 -0.6999,3.51151 -2.29835,4.19348 z M 127.61768,85.963926 c -9.3603,-1.593241 -22.06066,-1.682088 -32.406959,-0.226712 -2.69513,0.379119 -4.193698,0.458906 -4.253594,0.226479 -0.05087,-0.197363 -1.805017,-8.494443 -3.89811,-18.437954 l -3.805619,-18.079114 2.685976,-0.808516 c 13.417434,-4.03883 28.193326,-4.709066 42.019976,-1.906037 4.68858,0.950498 10.26422,2.531415 10.25696,2.908259 -0.0114,0.589786 -7.83339,36.482564 -7.97805,36.60874 -0.0846,0.07433 -1.26416,-0.05426 -2.62058,-0.285145 z M 81.434656,88.50643 c -0.823563,0.203886 -3.350818,0.974492 -5.616133,1.712467 -15.296084,4.983026 -28.152035,12.520233 -40.674059,23.846443 -4.503001,4.07298 -5.063308,4.42615 -6.704592,4.22595 -1.911252,-0.23314 -3.502192,-2.17175 -3.334559,-4.06328 0.235068,-2.65245 4.452417,-12.68411 8.227707,-19.570943 9.859179,-17.98499 22.31376,-31.120189 37.567098,-39.62006 2.208139,-1.230478 4.429358,-2.339223 4.808632,-2.400278 0.164469,-0.02647 7.469972,35.069061 7.345242,35.286451 -0.06708,0.116908 -0.79578,0.37937 -1.619336,0.58325 z"
       id="path8" /></g></svg>
