<?xml version="1.0" encoding="utf-8"?>
<!-- Generator: Adobe Illustrator 27.9.0, SVG Export Plug-In . SVG Version: 6.00 Build 0)  -->
<svg version="1.1" id="Capa_1" xmlns="http://www.w3.org/2000/svg" xmlns:xlink="http://www.w3.org/1999/xlink" x="0px" y="0px"
	 viewBox="0 0 78.6 83" style="enable-background:new 0 0 78.6 83;" xml:space="preserve">
<style type="text/css">
	.st0{fill:#010103;}
</style>
<g>
	<path class="st0" d="M78.5,69.6c-0.5-1.9-2.4-3.1-4.4-2.7l-27.4,6.3l-0.4-0.7L75.9,63c2.2-0.7,3.3-3.2,2.3-5.4
		c-0.8-1.7-2.8-2.6-4.6-2.1l-23.5,6.7c-2.3,0.7-4.8,0.3-6.8-1L38,57.8l2.9-5.1c0.7-1.2,0.2-2.7-1-3.3L26,42c-1-0.5-2.3-0.4-3.1,0.4
		l-2.1,2.1L20.6,29c0-1.6-1.3-2.8-2.9-2.9c-1.7,0-3,1.4-2.9,3L15.6,45h-2.1c-0.2-3.6-3.1-6.4-6.7-6.4c-3.7,0-6.7,3-6.7,6.7
		c0,2.5,1.4,4.7,3.5,5.9c-1.4,1.2-2.3,3-2.3,5c0,3.7,3,6.7,6.7,6.7c3.1,0,5.7-2.1,6.5-4.9l1.7-0.2l1.3,1.3l-3.1,5.3
		c-0.6,1.1-0.3,2.5,0.9,3.1l27.8,14.7c1.6,0.8,3.4,1,5.1,0.5L76,74C77.9,73.4,79,71.5,78.5,69.6z M14,53.4c-0.6-1.3-1.6-2.4-2.9-3.1
		c0.7-0.6,1.2-1.3,1.6-2.2l2.9,0.3l0.1,2.6L14,53.4z"/>
	<path class="st0" d="M26.2,34.4h1.4c0.4,0,0.7-0.3,0.7-0.7V9.9c0-0.4-0.3-0.7-0.7-0.7h-1.4c-0.4,0-0.7,0.3-0.7,0.7v23.8
		C25.5,34.1,25.8,34.4,26.2,34.4z"/>
	<path class="st0" d="M31.5,25.1h1.4c0.4,0,0.7-0.3,0.7-0.7V0.7c0-0.4-0.3-0.7-0.7-0.7h-1.4c-0.4,0-0.7,0.3-0.7,0.7v23.8
		C30.8,24.8,31.1,25.1,31.5,25.1z"/>
	<path class="st0" d="M52,44.3h1.4c0.4,0,0.7-0.3,0.7-0.7V19.8c0-0.4-0.3-0.7-0.7-0.7H52c-0.4,0-0.7,0.3-0.7,0.7v23.8
		C51.3,44,51.6,44.3,52,44.3z"/>
	<path class="st0" d="M57,53.4h1.4c0.4,0,0.7-0.3,0.7-0.7V28.9c0-0.4-0.3-0.7-0.7-0.7H57c-0.4,0-0.7,0.3-0.7,0.7v23.8
		C56.3,53.1,56.6,53.4,57,53.4z"/>
</g>
</svg>
