<?xml version="1.0" ?><!-- Uploaded to: SVG Repo, www.svgrepo.com, Generator: SVG Repo Mixer Tools -->
<svg fill="#000000" width="800px" height="800px" viewBox="0 0 512 512" id="_x30_1" version="1.1" xml:space="preserve" xmlns="http://www.w3.org/2000/svg" xmlns:xlink="http://www.w3.org/1999/xlink"><path d="M487.252,191L487.252,191c-3.463,0-6.887,0.727-10.051,2.133L392,231v-41c0-33.137-26.863-60-60-60h-20v0  C312,58.203,253.797,0,182,0H60C37.909,0,20,17.909,20,40v0c0,22.091,17.909,40,40,40h122c27.614,0,50,22.386,50,50v0H60  c-33.137,0-60,26.863-60,60v262c0,33.137,26.863,60,60,60h272c33.137,0,60-26.863,60-60v-41l85.201,37.867  c3.164,1.406,6.588,2.133,10.051,2.133h0C500.92,451,512,439.92,512,426.252V215.748C512,202.08,500.92,191,487.252,191z M312,402  c0,16.569-13.431,30-30,30H110c-16.569,0-30-13.431-30-30v0c0-16.568,13.431-30,30-30h172C298.569,372,312,385.431,312,402L312,402z  "/></svg>