<?xml version="1.0" encoding="utf-8"?>
<!-- Generator: Adobe Illustrator 27.9.0, SVG Export Plug-In . SVG Version: 6.00 Build 0)  -->
<svg version="1.1" id="Capa_1" xmlns="http://www.w3.org/2000/svg" xmlns:xlink="http://www.w3.org/1999/xlink" x="0px" y="0px"
	 viewBox="0 0 800 800" style="enable-background:new 0 0 800 800;" xml:space="preserve">
<style type="text/css">
	.st0{fill:#FFFFFF;}
</style>
<g id="_x37_935ec95c421cee6d86eb22ecd1368a9">
	<path class="st0" d="M53.7,0.8h71.8l46.3,142.3h4.5L220.3,0.8h72.4l-83,208.3v147.8h-71.3V215.8L53.7,0.8z M300.3,154.2
		c0-20.9,8.6-37.5,25.8-49.9c17.2-12.4,40.2-18.6,69.2-18.6c26.4,0,48,6.6,64.9,19.6c16.9,13.1,25.3,29.9,25.3,50.4v139.4
		c0,23.1-8.3,41.2-24.8,54.3c-16.5,13.1-39.3,19.7-68.3,19.7c-27.9,0-50.2-6.8-67-20.4c-16.7-13.6-25.1-31.8-25.1-54.8V154.2z
		 M365.9,299.1c0,7.4,2.2,13.1,6.8,17.2c4.5,4.1,11,6,19.5,6c8.6,0,15.5-2,20.6-6.2c5.1-4.2,7.6-9.9,7.6-17.1v-147
		c0-5.9-2.6-10.6-7.8-14.3c-5.2-3.6-12-5.5-20.4-5.5c-7.8,0-14.1,1.8-19,5.5c-4.9,3.6-7.3,8.4-7.3,14.3L365.9,299.1L365.9,299.1z
		 M718.7,90v269.9h-63.9v-29.8c-11.8,11-24,19.3-36.8,25.1c-12.7,5.7-25.1,8.6-37.1,8.6c-14.8,0-25.9-4-33.4-12
		c-7.5-8-11.2-20.1-11.2-36.1V90h63.9v206.9c0,6.4,1.3,11,4,13.9c2.7,2.8,7,4.3,13,4.3c4.7,0,10.7-1.9,17.8-5.7
		c7.2-3.8,13.8-8.6,19.8-14.5V90H718.7z M658.9,567.6c-3.1-3.5-8.1-5.3-15-5.3c-7.2,0-12.3,1.8-15.4,5.3c-3.1,3.5-4.7,9.3-4.7,17.4
		v16.8h39.8V585C663.6,576.9,662,571.1,658.9,567.6z M470.1,694.1c3.4,1.4,7.1,2.1,10.9,2.1c5.5,0,9.6-1.3,12.2-4.1
		c2.6-2.7,3.9-7.2,3.9-13.3v-97.2c0-6.5-1.6-11.5-4.8-14.9c-3.2-3.4-7.9-5.1-14-5.1c-3.2,0-6.4,0.6-9.5,1.9
		c-3.1,1.3-6.2,3.3-9.3,5.9v117.8C463.1,690.5,466.6,692.7,470.1,694.1z M766.4,488.4c0-46.8-48.1-84.7-107.3-84.7
		c-84.5-2.8-170.9-4.1-259.1-3.9c-88.2-0.2-174.6,1.1-259.1,3.9c-59.2,0-107.2,37.9-107.2,84.7c-3.6,37-5.1,74-5,111.1
		c-0.1,37,1.4,74.1,5,111.1c0,46.7,48,84.7,107.2,84.7c84.5,2.8,171,4.1,259.1,3.9c88.2,0.1,174.6-1.1,259.1-3.9
		c59.2,0,107.3-37.9,107.3-84.7c3.5-37,5.1-74.1,4.9-111.1C771.5,562.4,769.9,525.4,766.4,488.4z M189.5,724.2v2.8h-50.7v-2.8V502.6
		H86.2v-2.8v-35.3v-2.8H242v2.8v35.3v2.8h-52.5L189.5,724.2L189.5,724.2z M370,533.3v190.8v2.8h-45v-2.8v-18.6
		c-8.3,7.9-16.9,13.9-25.9,18c-9,4.1-17.7,6.2-26.2,6.2c-10.4,0-18.3-2.9-23.5-8.6c-5.3-5.8-7.9-14.4-7.9-26v-2.8v-159v-2.8h45.1
		v2.8V679c0,4.6,0.9,7.9,2.8,9.9c1.9,2.1,5,3.1,9.2,3.1c3.3,0,7.5-1.4,12.6-4.1c5-2.7,9.7-6.2,13.9-10.4V533.3v-2.8h45V533.3z
		 M543.4,579.4V684v2.8c0,13.8-3.5,24.3-10.6,31.6c-7.1,7.3-17.3,10.9-30.6,10.9c-8.8,0-16.6-1.4-23.5-4.2
		c-6.9-2.8-13.3-7.2-19.3-13.1v12.1v2.8h-45.5v-2.8V464.5v-2.8h45.5v2.8v81.7c6.1-5.9,12.5-10.4,19.3-13.5
		c6.8-3.1,13.8-4.6,20.7-4.6c14.2,0,25.1,4.1,32.7,12.4c7.5,8.3,11.3,20.3,11.3,36.1L543.4,579.4L543.4,579.4z M709.9,585.4v46.5
		v2.8h-86.2v33.7c0,10.2,1.5,17.2,4.4,21.2c3,3.9,8,5.9,15.2,5.9c7.5,0,12.7-1.7,15.7-5c3-3.3,4.4-10.7,4.4-22.1v-10.6V655h46.4v2.8
		v11.7v2.8c0,19.8-5.6,34.8-16.9,44.8c-11.3,10.1-28.2,15-50.6,15c-20.2,0-36-5.3-47.6-16c-11.6-10.6-17.4-25.3-17.4-43.9v-2.8
		v-84.1v-2.8c0-16.8,6.4-30.5,19.1-41.1c12.7-10.6,29.2-15.9,49.4-15.9c20.6,0,36.5,4.9,47.5,14.7c11,9.8,16.6,23.9,16.6,42.3
		L709.9,585.4L709.9,585.4z"/>
</g>
</svg>
